<?xml version="1.0" encoding="utf-8"?>
<svg xmlns="http://www.w3.org/2000/svg" style="margin: auto; display: block; shape-rendering: auto;" width="280" height="53" preserveAspectRatio="xMidYMid">
<style type="text/css">
  text {
    text-anchor: middle; font-size: 42px; opacity: 0;
  }
</style>
<g style="transform-origin:140px 26.5px;transform:scale(1)">
<g transform="translate(140,26.5)">
  <g transform="translate(0,0)"><g class="path" style="transform: matrix(1, 0, 0, 1, 0, 14.925); opacity: 0.05; transform-origin: -113.975px -3.01878px; animation: 1.26582s linear 0s 1 normal forwards running float-btt-in-b2274ff0-9df3-436f-a65f-3f89e9d021c2;"><path d="M11.48-11.03L11.48 0L3.34 0L3.34-29.53L19.30-29.53L19.30-29.53Q21.37-29.53 23.27-28.98L23.27-28.98L23.27-28.98Q25.16-28.42 26.62-27.31L26.62-27.31L26.62-27.31Q28.08-26.19 28.95-24.50L28.95-24.50L28.95-24.50Q29.82-22.80 29.82-20.53L29.82-20.53L29.82-20.53Q29.82-19.09 29.41-17.83L29.41-17.83L29.41-17.83Q29.00-16.57 28.27-15.52L28.27-15.52L28.27-15.52Q27.54-14.48 26.56-13.64L26.56-13.64L26.56-13.64Q25.57-12.80 24.40-12.22L24.40-12.22L24.40-12.22Q23.24-11.65 21.93-11.34L21.93-11.34L21.93-11.34Q20.63-11.03 19.30-11.03L19.30-11.03L11.48-11.03zM21.57-20.53L21.57-20.53L21.57-20.53Q21.57-23.38 20.13-25.01L20.13-25.01L20.13-25.01Q18.68-26.64 15.77-26.64L15.77-26.64L11.48-26.64L11.48-13.82L15.77-13.82L15.77-13.82Q17.33-13.82 18.43-14.32L18.43-14.32L18.43-14.32Q19.52-14.83 20.22-15.73L20.22-15.73L20.22-15.73Q20.92-16.63 21.25-17.85L21.25-17.85L21.25-17.85Q21.57-19.07 21.57-20.53" fill="#000000" stroke="none" stroke-width="none" transform="translate(-130.5550136566162,11.746223945617675)" style="fill: rgb(0, 0, 0);"></path></g><g class="path" style="transform: matrix(1, 0, 0, 1, 0, 14.925); opacity: 0.05; transform-origin: -86.135px -0.148777px; animation: 1.26582s linear 0.092827s 1 normal forwards running float-btt-in-b2274ff0-9df3-436f-a65f-3f89e9d021c2;"><path d="M57.01-23.69L57.01 0L50.08 0L50.08-2.83L50.08-2.83Q48.85-1.15 47.12-0.34L47.12-0.34L47.12-0.34Q45.38 0.47 43.31 0.47L43.31 0.47L43.31 0.47Q40.61 0.47 38.47-0.49L38.47-0.49L38.47-0.49Q36.34-1.46 34.86-3.13L34.86-3.13L34.86-3.13Q33.39-4.80 32.61-7.05L32.61-7.05L32.61-7.05Q31.83-9.31 31.83-11.89L31.83-11.89L31.83-11.89Q31.83-14.48 32.61-16.73L32.61-16.73L32.61-16.73Q33.39-18.99 34.86-20.66L34.86-20.66L34.86-20.66Q36.34-22.33 38.47-23.30L38.47-23.30L38.47-23.30Q40.61-24.26 43.31-24.26L43.31-24.26L43.31-24.26Q44.69-24.26 45.93-23.85L45.93-23.85L45.93-23.85Q47.17-23.44 48.20-22.69L48.20-22.69L48.20-22.69Q49.24-21.94 50.03-20.89L50.03-20.89L50.03-20.89Q50.82-19.83 51.27-18.54L51.27-18.54L54.35-23.69L57.01-23.69zM50.04-11.89L50.04-11.89L50.04-11.89Q50.04-12.82 49.95-13.84L49.95-13.84L49.95-13.84Q49.85-14.87 49.63-15.87L49.63-15.87L49.63-15.87Q49.40-16.88 49.00-17.79L49.00-17.79L49.00-17.79Q48.60-18.70 47.98-19.41L47.98-19.41L47.98-19.41Q47.35-20.12 46.47-20.53L46.47-20.53L46.47-20.53Q45.59-20.94 44.42-20.94L44.42-20.94L44.42-20.94Q43.25-20.94 42.39-20.52L42.39-20.52L42.39-20.52Q41.53-20.10 40.91-19.39L40.91-19.39L40.91-19.39Q40.30-18.68 39.90-17.76L39.90-17.76L39.90-17.76Q39.50-16.84 39.27-15.83L39.27-15.83L39.27-15.83Q39.05-14.83 38.95-13.81L38.95-13.81L38.95-13.81Q38.86-12.80 38.86-11.89L38.86-11.89L38.86-11.89Q38.86-10.99 38.95-9.97L38.95-9.97L38.95-9.97Q39.05-8.94 39.27-7.94L39.27-7.94L39.27-7.94Q39.50-6.93 39.90-6.01L39.90-6.01L39.90-6.01Q40.30-5.09 40.91-4.38L40.91-4.38L40.91-4.38Q41.53-3.67 42.39-3.25L42.39-3.25L42.39-3.25Q43.25-2.83 44.42-2.83L44.42-2.83L44.42-2.83Q45.49-2.83 46.32-3.27L46.32-3.27L46.32-3.27Q47.15-3.71 47.77-4.45L47.77-4.45L47.77-4.45Q48.40-5.19 48.83-6.13L48.83-6.13L48.83-6.13Q49.26-7.08 49.53-8.08L49.53-8.08L49.53-8.08Q49.79-9.08 49.92-10.08L49.92-10.08L49.92-10.08Q50.04-11.07 50.04-11.89" fill="#000000" stroke="none" stroke-width="none" transform="translate(-130.5550136566162,11.746223945617675)" style="fill: rgb(0, 0, 0);"></path></g><g class="path" style="transform: matrix(1, 0, 0, 1, 0, 14.925); opacity: 0.05; transform-origin: -55.655px 2.13622px; animation: 1.26582s linear 0.185654s 1 normal forwards running float-btt-in-b2274ff0-9df3-436f-a65f-3f89e9d021c2;"><path d="M87.01-13.58L87.01-13.58L87.01-13.58Q87.01-11.18 86.43-8.57L86.43-8.57L86.43-8.57Q85.85-5.97 84.80-3.47L84.80-3.47L84.80-3.47Q83.75-0.96 82.30 1.24L82.30 1.24L82.30 1.24Q80.84 3.45 79.10 5.04L79.10 5.04L76.49 3.63L76.49 3.63Q77.05 2.60 77.54 1.33L77.54 1.33L77.54 1.33Q78.03 0.06 78.43-1.36L78.43-1.36L78.43-1.36Q78.83-2.79 79.15-4.31L79.15-4.31L79.15-4.31Q79.47-5.82 79.68-7.31L79.68-7.31L79.68-7.31Q79.90-8.80 80.01-10.20L80.01-10.20L80.01-10.20Q80.12-11.61 80.12-12.82L80.12-12.82L80.12-12.82Q80.12-13.62 80.06-14.53L80.06-14.53L80.06-14.53Q80.00-15.44 79.81-16.35L79.81-16.35L79.81-16.35Q79.61-17.27 79.28-18.11L79.28-18.11L79.28-18.11Q78.96-18.95 78.41-19.58L78.41-19.58L78.41-19.58Q77.87-20.22 77.10-20.61L77.10-20.61L77.10-20.61Q76.33-21 75.28-21L75.28-21L75.28-21Q74.26-21 73.46-20.54L73.46-20.54L73.46-20.54Q72.66-20.08 72.04-19.33L72.04-19.33L72.04-19.33Q71.43-18.58 70.99-17.62L70.99-17.62L70.99-17.62Q70.55-16.65 70.27-15.64L70.27-15.64L70.27-15.64Q69.99-14.62 69.87-13.64L69.87-13.64L69.87-13.64Q69.75-12.65 69.75-11.87L69.75-11.87L69.75 0L62.79 0L62.79-23.69L65.46-23.69L68.64-18.17L68.64-18.17Q69.21-19.54 70.08-20.67L70.08-20.67L70.08-20.67Q70.94-21.80 72.02-22.60L72.02-22.60L72.02-22.60Q73.11-23.40 74.43-23.83L74.43-23.83L74.43-23.83Q75.76-24.26 77.29-24.26L77.29-24.26L77.29-24.26Q79.75-24.26 81.58-23.46L81.58-23.46L81.58-23.46Q83.41-22.66 84.62-21.24L84.62-21.24L84.62-21.24Q85.83-19.81 86.42-17.85L86.42-17.85L86.42-17.85Q87.01-15.89 87.01-13.58" fill="#000000" stroke="none" stroke-width="none" transform="translate(-130.5550136566162,11.746223945617675)" style="fill: rgb(0, 0, 0);"></path></g><g class="path" style="transform: matrix(1, 0, 0, 1, 0, 14.925); opacity: 0.05; transform-origin: -27.165px -0.148777px; animation: 1.26582s linear 0.278481s 1 normal forwards running float-btt-in-b2274ff0-9df3-436f-a65f-3f89e9d021c2;"><path d="M116.61-11.89L116.61-11.89L116.61-11.89Q116.61-10.05 116.12-8.43L116.12-8.43L116.12-8.43Q115.62-6.81 114.75-5.43L114.75-5.43L114.75-5.43Q113.88-4.06 112.65-2.96L112.65-2.96L112.65-2.96Q111.42-1.87 109.95-1.11L109.95-1.11L109.95-1.11Q108.49-0.35 106.81 0.06L106.81 0.06L106.81 0.06Q105.14 0.47 103.38 0.47L103.38 0.47L103.38 0.47Q101.62 0.47 99.96 0.06L99.96 0.06L99.96 0.06Q98.29-0.35 96.83-1.11L96.83-1.11L96.83-1.11Q95.36-1.87 94.13-2.96L94.13-2.96L94.13-2.96Q92.90-4.06 92.03-5.43L92.03-5.43L92.03-5.43Q91.16-6.81 90.67-8.44L90.67-8.44L90.67-8.44Q90.17-10.07 90.17-11.89L90.17-11.89L90.17-11.89Q90.17-13.72 90.67-15.35L90.67-15.35L90.67-15.35Q91.16-16.98 92.03-18.35L92.03-18.35L92.03-18.35Q92.90-19.73 94.13-20.83L94.13-20.83L94.13-20.83Q95.36-21.92 96.83-22.68L96.83-22.68L96.83-22.68Q98.29-23.44 99.96-23.85L99.96-23.85L99.96-23.85Q101.62-24.26 103.38-24.26L103.38-24.26L103.38-24.26Q105.14-24.26 106.81-23.85L106.81-23.85L106.81-23.85Q108.49-23.44 109.95-22.68L109.95-22.68L109.95-22.68Q111.42-21.92 112.65-20.83L112.65-20.83L112.65-20.83Q113.88-19.73 114.75-18.35L114.75-18.35L114.75-18.35Q115.62-16.98 116.12-15.35L116.12-15.35L116.12-15.35Q116.61-13.72 116.61-11.89zM109.55-11.89L109.55-11.89L109.55-11.89Q109.55-12.88 109.44-13.98L109.44-13.98L109.44-13.98Q109.33-15.07 109.06-16.13L109.06-16.13L109.06-16.13Q108.79-17.19 108.33-18.16L108.33-18.16L108.33-18.16Q107.87-19.13 107.19-19.86L107.19-19.86L107.19-19.86Q106.52-20.59 105.57-21.03L105.57-21.03L105.57-21.03Q104.63-21.47 103.38-21.47L103.38-21.47L103.38-21.47Q102.19-21.47 101.27-21.02L101.27-21.02L101.27-21.02Q100.34-20.57 99.66-19.82L99.66-19.82L99.66-19.82Q98.97-19.07 98.51-18.09L98.51-18.09L98.51-18.09Q98.05-17.10 97.76-16.05L97.76-16.05L97.76-16.05Q97.47-14.99 97.35-13.91L97.35-13.91L97.35-13.91Q97.23-12.84 97.23-11.89L97.23-11.89L97.23-11.89Q97.23-10.95 97.35-9.87L97.35-9.87L97.35-9.87Q97.47-8.80 97.76-7.73L97.76-7.73L97.76-7.73Q98.05-6.67 98.51-5.69L98.51-5.69L98.51-5.69Q98.97-4.72 99.66-3.97L99.66-3.97L99.66-3.97Q100.34-3.22 101.27-2.77L101.27-2.77L101.27-2.77Q102.19-2.32 103.38-2.32L103.38-2.32L103.38-2.32Q104.61-2.32 105.55-2.76L105.55-2.76L105.55-2.76Q106.50-3.20 107.18-3.94L107.18-3.94L107.18-3.94Q107.87-4.68 108.32-5.64L108.32-5.64L108.32-5.64Q108.77-6.60 109.05-7.67L109.05-7.67L109.05-7.67Q109.33-8.74 109.44-9.82L109.44-9.82L109.44-9.82Q109.55-10.91 109.55-11.89" fill="#000000" stroke="none" stroke-width="none" transform="translate(-130.5550136566162,11.746223945617675)" style="fill: rgb(0, 0, 0);"></path></g><g class="path" style="transform: matrix(1, 0, 0, 1, 0, 14.925); opacity: 0.05; transform-origin: 0.489979px -0.383777px; animation: 1.26582s linear 0.371308s 1 normal forwards running float-btt-in-b2274ff0-9df3-436f-a65f-3f89e9d021c2;"><path d="M141.11-21.59L141.11-21.59L137.22-15.13L137.22-15.13Q136.97-15.96 136.58-16.98L136.58-16.98L136.58-16.98Q136.19-18.01 135.62-18.90L135.62-18.90L135.62-18.90Q135.04-19.79 134.24-20.40L134.24-20.40L134.24-20.40Q133.44-21 132.40-21L132.40-21L132.40-21Q131.43-21 130.73-20.51L130.73-20.51L130.73-20.51Q130.02-20.02 129.53-19.23L129.53-19.23L129.53-19.23Q129.04-18.44 128.72-17.44L128.72-17.44L128.72-17.44Q128.40-16.45 128.23-15.43L128.23-15.43L128.23-15.43Q128.05-14.42 127.99-13.48L127.99-13.48L127.99-13.48Q127.93-12.55 127.93-11.87L127.93-11.87L127.93 0L120.98 0L120.98-23.69L123.64-23.69L126.45-18.17L126.45-18.17Q127.03-19.50 127.76-20.62L127.76-20.62L127.76-20.62Q128.50-21.74 129.47-22.55L129.47-22.55L129.47-22.55Q130.43-23.36 131.65-23.81L131.65-23.81L131.65-23.81Q132.87-24.26 134.41-24.26L134.41-24.26L134.41-24.26Q135.21-24.26 136.19-24.13L136.19-24.13L136.19-24.13Q137.18-23.99 138.12-23.68L138.12-23.68L138.12-23.68Q139.06-23.36 139.86-22.85L139.86-22.85L139.86-22.85Q140.66-22.33 141.11-21.59" fill="#000000" stroke="none" stroke-width="none" transform="translate(-130.5550136566162,11.746223945617675)" style="fill: rgb(0, 0, 0);"></path></g><g class="path" style="transform: matrix(1, 0, 0, 1, 0, 14.925); opacity: 0.05; transform-origin: 24.235px -0.148777px; animation: 1.26582s linear 0.464135s 1 normal forwards running float-btt-in-b2274ff0-9df3-436f-a65f-3f89e9d021c2;"><path d="M167.38-23.69L167.38 0L160.45 0L160.45-2.83L160.45-2.83Q159.22-1.15 157.49-0.34L157.49-0.34L157.49-0.34Q155.76 0.47 153.69 0.47L153.69 0.47L153.69 0.47Q150.98 0.47 148.85-0.49L148.85-0.49L148.85-0.49Q146.71-1.46 145.24-3.13L145.24-3.13L145.24-3.13Q143.76-4.80 142.98-7.05L142.98-7.05L142.98-7.05Q142.20-9.31 142.20-11.89L142.20-11.89L142.20-11.89Q142.20-14.48 142.98-16.73L142.98-16.73L142.98-16.73Q143.76-18.99 145.24-20.66L145.24-20.66L145.24-20.66Q146.71-22.33 148.85-23.30L148.85-23.30L148.85-23.30Q150.98-24.26 153.69-24.26L153.69-24.26L153.69-24.26Q155.06-24.26 156.30-23.85L156.30-23.85L156.30-23.85Q157.54-23.44 158.58-22.69L158.58-22.69L158.58-22.69Q159.61-21.94 160.40-20.89L160.40-20.89L160.40-20.89Q161.19-19.83 161.64-18.54L161.64-18.54L164.72-23.69L167.38-23.69zM160.41-11.89L160.41-11.89L160.41-11.89Q160.41-12.82 160.32-13.84L160.32-13.84L160.32-13.84Q160.23-14.87 160.00-15.87L160.00-15.87L160.00-15.87Q159.78-16.88 159.38-17.79L159.38-17.79L159.38-17.79Q158.98-18.70 158.35-19.41L158.35-19.41L158.35-19.41Q157.73-20.12 156.84-20.53L156.84-20.53L156.84-20.53Q155.96-20.94 154.79-20.94L154.79-20.94L154.79-20.94Q153.62-20.94 152.76-20.52L152.76-20.52L152.76-20.52Q151.90-20.10 151.29-19.39L151.29-19.39L151.29-19.39Q150.67-18.68 150.27-17.76L150.27-17.76L150.27-17.76Q149.87-16.84 149.65-15.83L149.65-15.83L149.65-15.83Q149.42-14.83 149.33-13.81L149.33-13.81L149.33-13.81Q149.24-12.80 149.24-11.89L149.24-11.89L149.24-11.89Q149.24-10.99 149.33-9.97L149.33-9.97L149.33-9.97Q149.42-8.94 149.65-7.94L149.65-7.94L149.65-7.94Q149.87-6.93 150.27-6.01L150.27-6.01L150.27-6.01Q150.67-5.09 151.29-4.38L151.29-4.38L151.29-4.38Q151.90-3.67 152.76-3.25L152.76-3.25L152.76-3.25Q153.62-2.83 154.79-2.83L154.79-2.83L154.79-2.83Q155.86-2.83 156.69-3.27L156.69-3.27L156.69-3.27Q157.52-3.71 158.15-4.45L158.15-4.45L158.15-4.45Q158.77-5.19 159.20-6.13L159.20-6.13L159.20-6.13Q159.63-7.08 159.90-8.08L159.90-8.08L159.90-8.08Q160.17-9.08 160.29-10.08L160.29-10.08L160.29-10.08Q160.41-11.07 160.41-11.89" fill="#000000" stroke="none" stroke-width="none" transform="translate(-130.5550136566162,11.746223945617675)" style="fill: rgb(0, 0, 0);"></path></g><g class="path" style="transform: matrix(1, 0, 0, 1, 0, 14.925); opacity: 0.05; transform-origin: 60.94px 2.13622px; animation: 1.26582s linear 0.556962s 1 normal forwards running float-btt-in-b2274ff0-9df3-436f-a65f-3f89e9d021c2;"><path d="M209.82-13.82L209.82-13.82L209.82-13.82Q209.82-11.38 209.24-8.74L209.24-8.74L209.24-8.74Q208.67-6.09 207.63-3.58L207.63-3.58L207.63-3.58Q206.60-1.07 205.14 1.17L205.14 1.17L205.14 1.17Q203.68 3.40 201.90 5.04L201.90 5.04L199.29 3.63L199.29 3.63Q199.89 2.56 200.38 1.23L200.38 1.23L200.38 1.23Q200.87-0.10 201.28-1.58L201.28-1.58L201.28-1.58Q201.69-3.06 202.00-4.61L202.00-4.61L202.00-4.61Q202.31-6.17 202.52-7.72L202.52-7.72L202.52-7.72Q202.74-9.27 202.84-10.73L202.84-10.73L202.84-10.73Q202.95-12.18 202.95-13.45L202.95-13.45L202.95-13.45Q202.95-14.17 202.90-15.01L202.90-15.01L202.90-15.01Q202.86-15.85 202.73-16.69L202.73-16.69L202.73-16.69Q202.60-17.53 202.33-18.30L202.33-18.30L202.33-18.30Q202.06-19.07 201.60-19.68L201.60-19.68L201.60-19.68Q201.14-20.28 200.45-20.64L200.45-20.64L200.45-20.64Q199.77-21 198.80-21L198.80-21L198.80-21Q197.86-21 197.19-20.50L197.19-20.50L197.19-20.50Q196.53-20.00 196.05-19.20L196.05-19.20L196.05-19.20Q195.58-18.40 195.31-17.39L195.31-17.39L195.31-17.39Q195.03-16.39 194.89-15.37L194.89-15.37L194.89-15.37Q194.74-14.36 194.69-13.43L194.69-13.43L194.69-13.43Q194.64-12.51 194.64-11.87L194.64-11.87L194.64 0L187.73 0L187.73-11.03L187.73-11.03Q187.73-11.75 187.75-12.77L187.75-12.77L187.75-12.77Q187.77-13.78 187.70-14.89L187.70-14.89L187.70-14.89Q187.63-16.00 187.43-17.09L187.43-17.09L187.43-17.09Q187.24-18.19 186.82-19.05L186.82-19.05L186.82-19.05Q186.40-19.91 185.68-20.46L185.68-20.46L185.68-20.46Q184.96-21 183.87-21L183.87-21L183.87-21Q182.95-21 182.32-20.49L182.32-20.49L182.32-20.49Q181.70-19.97 181.28-19.16L181.28-19.16L181.28-19.16Q180.86-18.35 180.62-17.34L180.62-17.34L180.62-17.34Q180.39-16.32 180.27-15.31L180.27-15.31L180.27-15.31Q180.16-14.29 180.14-13.38L180.14-13.38L180.14-13.38Q180.12-12.47 180.12-11.87L180.12-11.87L180.12 0L173.17 0L173.17-23.69L175.83-23.69L178.38-18.17L178.38-18.17Q179.24-21.04 181.09-22.65L181.09-22.65L181.09-22.65Q182.95-24.26 186.03-24.26L186.03-24.26L186.03-24.26Q188.79-24.26 190.62-23.11L190.62-23.11L190.62-23.11Q192.45-21.96 193.49-19.38L193.49-19.38L193.49-19.38Q194.09-20.51 194.81-21.41L194.81-21.41L194.81-21.41Q195.54-22.31 196.43-22.95L196.43-22.95L196.43-22.95Q197.33-23.58 198.41-23.92L198.41-23.92L198.41-23.92Q199.50-24.26 200.81-24.26L200.81-24.26L200.81-24.26Q203.23-24.26 204.94-23.47L204.94-23.47L204.94-23.47Q206.66-22.68 207.74-21.29L207.74-21.29L207.74-21.29Q208.83-19.89 209.32-17.98L209.32-17.98L209.32-17.98Q209.82-16.06 209.82-13.82" fill="#000000" stroke="none" stroke-width="none" transform="translate(-130.5550136566162,11.746223945617675)" style="fill: rgb(0, 0, 0);"></path></g><g class="path" style="transform: matrix(1, 0, 0, 1, 0, 14.925); opacity: 0.05; transform-origin: 95.135px -0.148777px; animation: 1.26582s linear 0.649789s 1 normal forwards running float-btt-in-b2274ff0-9df3-436f-a65f-3f89e9d021c2;"><path d="M238.28-23.69L238.28 0L231.35 0L231.35-2.83L231.35-2.83Q230.12-1.15 228.39-0.34L228.39-0.34L228.39-0.34Q226.65 0.47 224.58 0.47L224.58 0.47L224.58 0.47Q221.87 0.47 219.74-0.49L219.74-0.49L219.74-0.49Q217.61-1.46 216.13-3.13L216.13-3.13L216.13-3.13Q214.66-4.80 213.88-7.05L213.88-7.05L213.88-7.05Q213.10-9.31 213.10-11.89L213.10-11.89L213.10-11.89Q213.10-14.48 213.88-16.73L213.88-16.73L213.88-16.73Q214.66-18.99 216.13-20.66L216.13-20.66L216.13-20.66Q217.61-22.33 219.74-23.30L219.74-23.30L219.74-23.30Q221.87-24.26 224.58-24.26L224.58-24.26L224.58-24.26Q225.96-24.26 227.20-23.85L227.20-23.85L227.20-23.85Q228.44-23.44 229.47-22.69L229.47-22.69L229.47-22.69Q230.51-21.94 231.30-20.89L231.30-20.89L231.30-20.89Q232.09-19.83 232.54-18.54L232.54-18.54L235.61-23.69L238.28-23.69zM231.31-11.89L231.31-11.89L231.31-11.89Q231.31-12.82 231.22-13.84L231.22-13.84L231.22-13.84Q231.12-14.87 230.90-15.87L230.90-15.87L230.90-15.87Q230.67-16.88 230.27-17.79L230.27-17.79L230.27-17.79Q229.87-18.70 229.25-19.41L229.25-19.41L229.25-19.41Q228.62-20.12 227.74-20.53L227.74-20.53L227.74-20.53Q226.86-20.94 225.69-20.94L225.69-20.94L225.69-20.94Q224.52-20.94 223.66-20.52L223.66-20.52L223.66-20.52Q222.80-20.10 222.18-19.39L222.18-19.39L222.18-19.39Q221.57-18.68 221.17-17.76L221.17-17.76L221.17-17.76Q220.77-16.84 220.54-15.83L220.54-15.83L220.54-15.83Q220.32-14.83 220.22-13.81L220.22-13.81L220.22-13.81Q220.13-12.80 220.13-11.89L220.13-11.89L220.13-11.89Q220.13-10.99 220.22-9.97L220.22-9.97L220.22-9.97Q220.32-8.94 220.54-7.94L220.54-7.94L220.54-7.94Q220.77-6.93 221.17-6.01L221.17-6.01L221.17-6.01Q221.57-5.09 222.18-4.38L222.18-4.38L222.18-4.38Q222.80-3.67 223.66-3.25L223.66-3.25L223.66-3.25Q224.52-2.83 225.69-2.83L225.69-2.83L225.69-2.83Q226.75-2.83 227.59-3.27L227.59-3.27L227.59-3.27Q228.42-3.71 229.04-4.45L229.04-4.45L229.04-4.45Q229.67-5.19 230.10-6.13L230.10-6.13L230.10-6.13Q230.53-7.08 230.79-8.08L230.79-8.08L230.79-8.08Q231.06-9.08 231.18-10.08L231.18-10.08L231.18-10.08Q231.31-11.07 231.31-11.89" fill="#000000" stroke="none" stroke-width="none" transform="translate(-130.5550136566162,11.746223945617675)" style="fill: rgb(0, 0, 0);"></path></g><g class="path" style="transform: matrix(1, 0, 0, 1, 0, 14.925); opacity: 0.05; transform-origin: 122.955px -0.148777px; animation: 1.26582s linear 0.742616s 1 normal forwards running float-btt-in-b2274ff0-9df3-436f-a65f-3f89e9d021c2;"><path d="M264.45-7.57L264.45-7.57L264.45-7.57Q264.45-6.01 264.00-4.80L264.00-4.80L264.00-4.80Q263.55-3.59 262.77-2.70L262.77-2.70L262.77-2.70Q261.99-1.80 260.92-1.20L260.92-1.20L260.92-1.20Q259.85-0.59 258.63-0.23L258.63-0.23L258.63-0.23Q257.41 0.14 256.08 0.31L256.08 0.31L256.08 0.31Q254.75 0.47 253.44 0.47L253.44 0.47L253.44 0.47Q251.67 0.47 250.32 0.25L250.32 0.25L250.32 0.25Q248.96 0.02 247.73-0.48L247.73-0.48L247.73-0.48Q246.50-0.98 245.28-1.78L245.28-1.78L245.28-1.78Q244.06-2.58 242.57-3.73L242.57-3.73L246.61-7.03L246.61-7.03Q247.16-5.99 248.07-5.14L248.07-5.14L248.07-5.14Q248.99-4.29 249.97-3.67L249.97-3.67L249.97-3.67Q250.95-3.06 251.88-2.73L251.88-2.73L251.88-2.73Q252.80-2.40 253.37-2.40L253.37-2.40L253.37-2.40Q253.85-2.40 254.44-2.43L254.44-2.43L254.44-2.43Q255.04-2.46 255.65-2.55L255.65-2.55L255.65-2.55Q256.27-2.65 256.86-2.83L256.86-2.83L256.86-2.83Q257.46-3.01 257.92-3.33L257.92-3.33L257.92-3.33Q258.38-3.65 258.65-4.13L258.65-4.13L258.65-4.13Q258.93-4.61 258.93-5.29L258.93-5.29L258.93-5.29Q258.93-5.99 258.57-6.51L258.57-6.51L258.57-6.51Q258.21-7.03 257.64-7.42L257.64-7.42L257.64-7.42Q257.07-7.81 256.33-8.08L256.33-8.08L256.33-8.08Q255.59-8.35 254.84-8.55L254.84-8.55L254.84-8.55Q254.09-8.76 253.39-8.91L253.39-8.91L253.39-8.91Q252.70-9.06 252.18-9.21L252.18-9.21L252.18-9.21Q251.24-9.47 250.20-9.75L250.20-9.75L250.20-9.75Q249.15-10.03 248.12-10.39L248.12-10.39L248.12-10.39Q247.10-10.75 246.17-11.24L246.17-11.24L246.17-11.24Q245.23-11.73 244.52-12.42L244.52-12.42L244.52-12.42Q243.82-13.10 243.40-14.04L243.40-14.04L243.40-14.04Q242.98-14.97 242.98-16.22L242.98-16.22L242.98-16.22Q242.98-18.52 243.89-20.07L243.89-20.07L243.89-20.07Q244.80-21.62 246.30-22.55L246.30-22.55L246.30-22.55Q247.80-23.48 249.70-23.87L249.70-23.87L249.70-23.87Q251.61-24.26 253.58-24.26L253.58-24.26L253.58-24.26Q254.93-24.26 256.43-23.98L256.43-23.98L256.43-23.98Q257.93-23.71 259.34-23.16L259.34-23.16L259.34-23.16Q260.76-22.62 261.99-21.84L261.99-21.84L261.99-21.84Q263.22-21.06 264.04-20.06L264.04-20.06L260.00-16.73L260.00-16.73Q259.55-17.96 258.82-18.85L258.82-18.85L258.82-18.85Q258.09-19.73 257.24-20.29L257.24-20.29L257.24-20.29Q256.39-20.86 255.50-21.12L255.50-21.12L255.50-21.12Q254.60-21.39 253.85-21.39L253.85-21.39L253.85-21.39Q253.11-21.39 252.18-21.33L252.18-21.33L252.18-21.33Q251.26-21.27 250.45-20.98L250.45-20.98L250.45-20.98Q249.64-20.69 249.08-20.11L249.08-20.11L249.08-20.11Q248.51-19.52 248.51-18.50L248.51-18.50L248.51-18.50Q248.51-17.76 248.85-17.24L248.85-17.24L248.85-17.24Q249.19-16.71 249.74-16.33L249.74-16.33L249.74-16.33Q250.30-15.96 251.01-15.70L251.01-15.70L251.01-15.70Q251.71-15.44 252.45-15.25L252.45-15.25L252.45-15.25Q253.19-15.05 253.89-14.91L253.89-14.91L253.89-14.91Q254.58-14.77 255.14-14.60L255.14-14.60L255.14-14.60Q256.08-14.33 257.14-14.06L257.14-14.06L257.14-14.06Q258.19-13.78 259.22-13.42L259.22-13.42L259.22-13.42Q260.24-13.06 261.20-12.58L261.20-12.58L261.20-12.58Q262.15-12.10 262.87-11.40L262.87-11.40L262.87-11.40Q263.59-10.71 264.02-9.77L264.02-9.77L264.02-9.77Q264.45-8.84 264.45-7.57" fill="#000000" stroke="none" stroke-width="none" transform="translate(-130.5550136566162,11.746223945617675)" style="fill: rgb(0, 0, 0);"></path></g></g>
</g>
</g>
<style id="float-btt-in-b2274ff0-9df3-436f-a65f-3f89e9d021c2" data-anikit="">@keyframes float-btt-in-b2274ff0-9df3-436f-a65f-3f89e9d021c2
{
  0% {
    animation-timing-function: cubic-bezier(0.2242,0.7499,0.3142,0.8148);
    transform: translate(0px,14.925px) rotate(0deg) scale(1,1) skewX(0deg) skewY(0deg);
    opacity: 0.05;
  }
  100% {
    transform: translate(0px,0px) rotate(0deg) scale(1,1) skewX(0deg) skewY(0deg);
    opacity: 1;
  }
}</style></svg>